<svg width="28" height="30" viewBox="0 0 28 30" fill="none" xmlns="http://www.w3.org/2000/svg">
<path d="M27.4583 13.4417V3.80834C27.4583 1.68334 26.5517 0.833344 24.2992 0.833344H18.5758C16.3233 0.833344 15.4167 1.68334 15.4167 3.80834V13.4417C15.4167 15.5667 16.3233 16.4167 18.5758 16.4167H24.2992C26.5517 16.4167 27.4583 15.5667 27.4583 13.4417ZM12.5833 16.5583V26.1917C12.5833 28.3167 11.6767 29.1667 9.42416 29.1667H3.70082C1.44832 29.1667 0.541656 28.3167 0.541656 26.1917V16.5583C0.541656 14.4333 1.44832 13.5833 3.70082 13.5833H9.42416C11.6767 13.5833 12.5833 14.4333 12.5833 16.5583ZM27.4583 26.1917V22.225C27.4583 20.1 26.5517 19.25 24.2992 19.25H18.5758C16.3233 19.25 15.4167 20.1 15.4167 22.225V26.1917C15.4167 28.3167 16.3233 29.1667 18.5758 29.1667H24.2992C26.5517 29.1667 27.4583 28.3167 27.4583 26.1917ZM12.5833 7.77501V3.80834C12.5833 1.68334 11.6767 0.833344 9.42416 0.833344H3.70082C1.44832 0.833344 0.541656 1.68334 0.541656 3.80834V7.77501C0.541656 9.90001 1.44832 10.75 3.70082 10.75H9.42416C11.6767 10.75 12.5833 9.90001 12.5833 7.77501Z" fill="white"/>
</svg>
